<?xml version="1.0" standalone="no"?>
<!DOCTYPE svg PUBLIC "-//W3C//DTD SVG 20010904//EN"
 "http://www.w3.org/TR/2001/REC-SVG-20010904/DTD/svg10.dtd">
<svg version="1.0" xmlns="http://www.w3.org/2000/svg"
 width="500.000000pt" height="500.000000pt" viewBox="0 0 500.000000 500.000000"
 preserveAspectRatio="xMidYMid meet">

<g transform="translate(0.000000,500.000000) scale(0.100000,-0.100000)"
fill="#000000" stroke="none">
<path d="M0 2500 l0 -2500 2500 0 2500 0 0 2500 0 2500 -2500 0 -2500 0 0
-2500z m2564 1386 c45 -19 78 -68 84 -126 5 -58 -15 -102 -63 -133 l-35 -22 0
-245 c0 -135 -3 -255 -6 -268 -9 -34 -53 -41 -76 -12 -16 20 -18 45 -18 274
l0 251 -30 17 c-49 28 -72 74 -67 136 4 61 28 99 78 124 41 22 88 23 133 4z
m-458 -198 c192 -195 174 -155 174 -394 0 -215 -4 -234 -50 -234 -43 0 -50 33
-50 228 l0 184 -135 141 c-90 94 -135 149 -135 164 0 22 23 42 50 43 8 0 74
-60 146 -132z m972 120 c27 -27 9 -56 -123 -195 l-135 -141 0 -180 c0 -199 -6
-232 -44 -232 -53 0 -56 14 -56 235 l0 204 32 38 c17 21 86 93 152 161 119
121 146 138 174 110z m311 -86 c102 -75 92 -203 -19 -260 -49 -25 -95 -23
-138 4 -21 14 -28 12 -96 -26 -41 -22 -77 -47 -80 -56 -3 -9 -6 -80 -6 -158 0
-150 -4 -166 -47 -166 -38 0 -44 28 -41 212 l3 173 62 40 c34 22 77 49 95 60
21 13 34 30 36 45 8 71 41 122 97 146 38 18 100 11 134 -14z m-1630 0 c47 -23
71 -59 79 -117 7 -47 9 -50 67 -83 33 -19 77 -45 98 -58 l37 -24 0 -171 c0
-98 -4 -178 -10 -190 -12 -21 -50 -25 -68 -7 -8 8 -12 58 -12 157 0 81 -4 151
-8 156 -4 6 -36 28 -72 49 -60 36 -67 37 -95 26 -16 -7 -52 -15 -80 -17 -88
-7 -155 57 -155 147 0 114 117 185 219 132z m405 -755 c7 -9 16 -40 19 -67 32
-268 367 -379 549 -182 48 52 77 114 85 182 10 90 -9 85 330 88 228 2 304 -1
323 -11 24 -12 25 -17 28 -119 3 -102 2 -108 -20 -122 -13 -8 -65 -20 -116
-27 l-93 -12 -29 -64 -30 -65 65 -91 c36 -49 65 -95 65 -101 0 -7 -57 -71
-127 -144 -94 -97 -134 -132 -151 -132 -13 0 -60 27 -104 60 -43 33 -83 60
-87 60 -11 0 -114 -41 -123 -49 -4 -4 -14 -50 -22 -104 -8 -54 -20 -105 -27
-113 -17 -20 -381 -21 -398 0 -6 8 -18 58 -26 112 -9 54 -18 101 -23 105 -20
17 -122 50 -134 43 -7 -4 -45 -32 -84 -61 -39 -29 -79 -53 -90 -53 -11 0 -74
55 -153 134 -154 154 -149 135 -64 248 28 36 53 70 56 75 5 9 -27 100 -45 129
-4 6 -49 17 -100 23 -51 7 -103 19 -116 27 -22 14 -23 20 -20 122 3 102 4 107
28 119 19 9 101 12 323 10 271 -2 300 -4 311 -20z m-1094 -1552 l0 -145 75 0
c73 0 75 -1 75 -25 l0 -25 -105 0 -105 0 0 170 0 170 30 0 30 0 0 -145z m428
118 c3 -22 1 -23 -77 -23 l-81 0 0 -45 0 -45 53 -1 c80 -2 82 -2 85 -26 3 -22
0 -23 -67 -23 l-71 0 0 -50 0 -49 78 -3 c71 -3 77 -5 80 -25 3 -23 2 -23 -112
-23 l-116 0 0 163 c0 90 3 167 7 171 4 3 54 5 112 4 101 -3 106 -4 109 -25z
m255 3 c51 -34 53 -122 3 -160 l-25 -19 35 -68 34 -69 -38 0 c-37 0 -38 1 -66
65 -25 58 -31 65 -57 65 l-29 0 0 -65 0 -65 -30 0 -30 0 0 163 c0 90 3 167 8
171 14 15 165 1 195 -18z m234 -92 l78 -117 3 117 3 116 29 0 30 0 0 -170 0
-170 -30 0 c-27 0 -37 11 -107 116 l-78 117 -3 -117 -3 -116 -29 0 -30 0 0
170 0 170 30 0 c27 0 37 -11 107 -116z m410 82 c33 -39 31 -66 -6 -66 -20 0
-34 8 -45 26 -20 29 -62 30 -80 2 -17 -28 3 -50 70 -75 69 -27 94 -53 94 -98
0 -70 -79 -117 -159 -95 -42 11 -81 50 -81 81 0 29 48 25 72 -7 16 -20 28 -24
57 -22 34 3 36 5 36 37 0 33 -3 36 -59 58 -32 12 -67 30 -76 38 -42 38 -31
112 19 141 17 9 45 13 80 11 44 -3 59 -9 78 -31z m163 -43 c19 -40 38 -73 41
-73 3 0 21 33 40 73 31 66 37 72 67 75 17 2 32 0 32 -4 0 -4 -25 -54 -55 -111
-49 -92 -55 -111 -55 -164 0 -59 0 -59 -30 -59 -30 0 -30 0 -30 59 0 53 -6 72
-55 164 -30 57 -55 107 -55 111 0 4 15 6 33 4 29 -3 35 -10 67 -75z m409 50
c43 -40 45 -67 4 -71 -24 -2 -33 1 -38 17 -11 35 -76 40 -89 6 -10 -27 5 -43
62 -66 66 -26 91 -44 103 -78 13 -32 -5 -85 -35 -104 -61 -41 -162 -22 -191
34 -22 41 -19 49 18 49 24 0 35 -6 42 -22 8 -18 18 -23 49 -23 26 0 42 6 50
17 17 27 -3 50 -65 75 -76 30 -99 53 -99 98 0 57 44 95 109 95 41 0 56 -5 80
-27z m341 2 c0 -23 -3 -25 -50 -25 l-50 0 0 -145 0 -145 -30 0 -29 0 -3 143
-3 142 -47 3 c-43 3 -48 5 -48 28 l0 24 130 0 130 0 0 -25z m268 -2 c3 -22 1
-23 -77 -23 l-81 0 0 -45 0 -45 53 -1 c80 -2 82 -2 85 -26 3 -22 0 -23 -67
-23 l-71 0 0 -50 0 -49 78 -3 c71 -3 77 -5 80 -25 3 -23 2 -23 -112 -23 l-116
0 0 163 c0 90 3 167 7 171 4 3 54 5 112 4 101 -3 106 -4 109 -25z m174 -78
c29 -58 55 -105 58 -105 3 0 28 46 55 103 49 100 51 102 88 105 l37 3 0 -170
0 -171 -30 0 -29 0 -3 113 -3 112 -45 -87 c-38 -76 -48 -88 -70 -88 -21 0 -32
13 -70 87 l-45 86 -3 -111 -3 -112 -29 0 -30 0 0 170 0 170 35 0 c35 0 36 -2
87 -105z"/>
<path d="M2461 3791 c-33 -33 -22 -77 22 -94 19 -7 56 8 69 27 34 50 -48 110
-91 67z"/>
<path d="M3274 3635 c-18 -19 -23 -31 -19 -48 16 -51 74 -63 102 -21 15 23 15
29 2 52 -23 40 -55 47 -85 17z"/>
<path d="M1650 3630 c-34 -34 -20 -80 27 -95 17 -4 29 1 48 19 31 31 31 41 0
71 -29 30 -49 31 -75 5z"/>
<path d="M1602 2873 c-9 -16 -9 -50 0 -58 2 -1 45 -10 96 -18 52 -9 99 -21
106 -26 7 -6 18 -30 26 -53 7 -24 23 -64 36 -90 13 -26 24 -56 24 -66 0 -11
-25 -53 -55 -95 -30 -41 -55 -79 -55 -84 0 -5 38 -46 84 -92 l85 -84 76 57
c41 31 82 59 90 62 7 3 51 -11 97 -30 145 -63 131 -49 148 -161 l15 -100 125
0 125 0 15 95 c8 52 18 100 22 106 4 6 29 19 55 29 26 10 71 29 100 42 28 12
56 23 61 23 6 0 47 -27 92 -61 l83 -61 83 83 c46 46 84 87 84 92 0 5 -25 43
-56 85 -42 58 -54 83 -51 102 7 33 72 189 85 202 6 6 52 17 103 24 51 8 96 20
101 26 4 7 7 24 6 38 l-3 25 -244 0 -245 0 -17 -57 c-91 -306 -463 -408 -688
-189 -54 52 -86 107 -111 191 l-16 55 -237 3 c-217 2 -237 1 -245 -15z"/>
<path d="M1610 1450 l0 -51 52 3 c47 3 54 6 62 31 16 44 -2 61 -63 65 l-51 3
0 -51z"/>
</g>
</svg>
